<svg width="16" height="16" viewBox="0 0 16 16" fill="none" xmlns="http://www.w3.org/2000/svg">
<path d="M13.3333 8.66683C13.7015 8.66683 14 8.36835 14 8.00016C14 7.63197 13.7015 7.3335 13.3333 7.3335C12.9651 7.3335 12.6667 7.63197 12.6667 8.00016C12.6667 8.36835 12.9651 8.66683 13.3333 8.66683Z" fill="#FCFCFD"/>
<path d="M13.3333 11.3335C13.7015 11.3335 14 11.035 14 10.6668C14 10.2986 13.7015 10.0002 13.3333 10.0002C12.9651 10.0002 12.6667 10.2986 12.6667 10.6668C12.6667 11.035 12.9651 11.3335 13.3333 11.3335Z" fill="#FCFCFD"/>
<path d="M13.3333 14.0002C13.7015 14.0002 14 13.7017 14 13.3335C14 12.9653 13.7015 12.6668 13.3333 12.6668C12.9651 12.6668 12.6667 12.9653 12.6667 13.3335C12.6667 13.7017 12.9651 14.0002 13.3333 14.0002Z" fill="#FCFCFD"/>
<path d="M8 11.3335C8.36819 11.3335 8.66667 11.035 8.66667 10.6668C8.66667 10.2986 8.36819 10.0002 8 10.0002C7.63181 10.0002 7.33333 10.2986 7.33333 10.6668C7.33333 11.035 7.63181 11.3335 8 11.3335Z" fill="#FCFCFD"/>
<path d="M8 14.0002C8.36819 14.0002 8.66667 13.7017 8.66667 13.3335C8.66667 12.9653 8.36819 12.6668 8 12.6668C7.63181 12.6668 7.33333 12.9653 7.33333 13.3335C7.33333 13.7017 7.63181 14.0002 8 14.0002Z" fill="#FCFCFD"/>
<path d="M2.66667 14.0002C3.03486 14.0002 3.33333 13.7017 3.33333 13.3335C3.33333 12.9653 3.03486 12.6668 2.66667 12.6668C2.29848 12.6668 2 12.9653 2 13.3335C2 13.7017 2.29848 14.0002 2.66667 14.0002Z" fill="#FCFCFD"/>
<path fill-rule="evenodd" clip-rule="evenodd" d="M13.3346 6C12.2301 6 11.3346 5.10457 11.3346 4C11.3346 2.89543 12.2301 2 13.3346 2C14.4392 2 15.3346 2.89543 15.3346 4C15.3346 5.10457 14.4392 6 13.3346 6ZM13.3346 4.66667C12.9664 4.66667 12.668 4.36819 12.668 4C12.668 3.63181 12.9664 3.33333 13.3346 3.33333C13.7028 3.33333 14.0013 3.63181 14.0013 4C14.0013 4.36819 13.7028 4.66667 13.3346 4.66667Z" fill="#FCFCFD"/>
<path fill-rule="evenodd" clip-rule="evenodd" d="M8.0013 8.66667C6.89673 8.66667 6.0013 7.77124 6.0013 6.66667C6.0013 5.5621 6.89673 4.66667 8.0013 4.66667C9.10587 4.66667 10.0013 5.5621 10.0013 6.66667C10.0013 7.77124 9.10587 8.66667 8.0013 8.66667ZM8.0013 7.33333C7.63311 7.33333 7.33463 7.03486 7.33463 6.66667C7.33463 6.29848 7.63311 6 8.0013 6C8.36949 6 8.66797 6.29848 8.66797 6.66667C8.66797 7.03486 8.36949 7.33333 8.0013 7.33333Z" fill="#FCFCFD"/>
<path fill-rule="evenodd" clip-rule="evenodd" d="M0.667969 9.33333C0.667969 10.4379 1.5634 11.3333 2.66797 11.3333C3.77254 11.3333 4.66797 10.4379 4.66797 9.33333C4.66797 8.22876 3.77254 7.33333 2.66797 7.33333C1.5634 7.33333 0.667969 8.22876 0.667969 9.33333ZM2.0013 9.33333C2.0013 9.70152 2.29978 10 2.66797 10C3.03616 10 3.33464 9.70152 3.33464 9.33333C3.33464 8.96514 3.03616 8.66667 2.66797 8.66667C2.29978 8.66667 2.0013 8.96514 2.0013 9.33333Z" fill="#FCFCFD"/>
</svg>
