<svg width="20" height="20" viewBox="0 0 20 20" fill="none" xmlns="http://www.w3.org/2000/svg">
<path fill-rule="evenodd" clip-rule="evenodd" d="M10.5757 5.76422C10.2533 6.07365 9.74414 6.07365 9.4217 5.76422L8.8447 5.2105C8.16934 4.56239 7.25698 4.16667 6.2487 4.16667C4.17763 4.16667 2.4987 5.8456 2.4987 7.91667C2.4987 9.90219 3.57352 11.5417 5.12516 12.8888C6.67813 14.237 8.53486 15.1312 9.64424 15.5876C9.87619 15.683 10.1212 15.683 10.3532 15.5876C11.4625 15.1312 13.3193 14.237 14.8722 12.8888C16.4239 11.5417 17.4987 9.90218 17.4987 7.91667C17.4987 5.8456 15.8198 4.16667 13.7487 4.16667C12.7404 4.16667 11.8281 4.56239 11.1527 5.2105L10.5757 5.76422ZM9.9987 4.00798C9.02545 3.074 7.70411 2.5 6.2487 2.5C3.25716 2.5 0.832031 4.92512 0.832031 7.91667C0.832031 13.2235 6.64065 16.1542 9.01019 17.1289C9.64834 17.3914 10.3491 17.3914 10.9872 17.1289C13.3567 16.1542 19.1654 13.2235 19.1654 7.91667C19.1654 4.92512 16.7402 2.5 13.7487 2.5C12.2933 2.5 10.9719 3.074 9.9987 4.00798Z" fill="#777E91"/>
</svg>
