<svg width="21" height="20" viewBox="0 0 21 20" fill="none" xmlns="http://www.w3.org/2000/svg">
<path d="M14.4987 0C14.9589 0 15.332 0.373096 15.332 0.833333V2.5C15.332 2.96024 14.9589 3.33333 14.4987 3.33333C14.0385 3.33333 13.6654 2.96024 13.6654 2.5V0.833333C13.6654 0.373096 14.0385 0 14.4987 0Z" fill="#777E91"/>
<path d="M14.4987 10C14.9589 10 15.332 10.3731 15.332 10.8333V15.8333C15.332 16.2936 14.9589 16.6667 14.4987 16.6667C14.0385 16.6667 13.6654 16.2936 13.6654 15.8333V10.8333C13.6654 10.3731 14.0385 10 14.4987 10Z" fill="#777E91"/>
<path d="M6.16536 3.33333C6.6256 3.33333 6.9987 3.70643 6.9987 4.16667V10.8333C6.9987 11.2936 6.6256 11.6667 6.16536 11.6667C5.70513 11.6667 5.33203 11.2936 5.33203 10.8333V4.16667C5.33203 3.70643 5.70513 3.33333 6.16536 3.33333Z" fill="#777E91"/>
<path d="M6.16536 15C6.6256 15 6.9987 15.3731 6.9987 15.8333V19.1667C6.9987 19.6269 6.6256 20 6.16536 20C5.70513 20 5.33203 19.6269 5.33203 19.1667V15.8333C5.33203 15.3731 5.70513 15 6.16536 15Z" fill="#777E91"/>
<path fill-rule="evenodd" clip-rule="evenodd" d="M11.9974 4.1665C11.9974 2.78579 13.1167 1.6665 14.4974 1.6665C15.8781 1.6665 16.9974 2.78579 16.9974 4.1665V9.1665C16.9974 10.5472 15.8781 11.6665 14.4974 11.6665C13.1167 11.6665 11.9974 10.5472 11.9974 9.1665V4.1665ZM15.3307 4.1665V9.1665C15.3307 9.62674 14.9576 9.99984 14.4974 9.99984C14.0372 9.99984 13.6641 9.62674 13.6641 9.1665V4.1665C13.6641 3.70627 14.0372 3.33317 14.4974 3.33317C14.9576 3.33317 15.3307 3.70627 15.3307 4.1665Z" fill="#777E91"/>
<path fill-rule="evenodd" clip-rule="evenodd" d="M3.66406 12.4998C3.66406 11.1191 4.78335 9.99984 6.16406 9.99984C7.54477 9.99984 8.66406 11.1191 8.66406 12.4998V14.1665C8.66406 15.5472 7.54477 16.6665 6.16406 16.6665C4.78335 16.6665 3.66406 15.5472 3.66406 14.1665V12.4998ZM6.9974 12.4998V14.1665C6.9974 14.6267 6.6243 14.9998 6.16406 14.9998C5.70382 14.9998 5.33073 14.6267 5.33073 14.1665V12.4998C5.33073 12.0396 5.70382 11.6665 6.16406 11.6665C6.6243 11.6665 6.9974 12.0396 6.9974 12.4998Z" fill="#777E91"/>
</svg>
