<svg width="48" height="48" viewBox="0 0 48 48" fill="none" xmlns="http://www.w3.org/2000/svg">
<g filter="url(#filter0_d)">
<path d="M8 16C8 7.16344 15.1634 0 24 0C32.8366 0 40 7.16344 40 16C40 24.8366 32.8366 32 24 32C15.1634 32 8 24.8366 8 16Z" fill="#FCFCFD"/>
<path fill-rule="evenodd" clip-rule="evenodd" d="M24.5757 11.7642C24.2533 12.0736 23.7441 12.0736 23.4217 11.7642L22.8447 11.2105C22.1693 10.5624 21.257 10.1667 20.2487 10.1667C18.1776 10.1667 16.4987 11.8456 16.4987 13.9167C16.4987 15.9022 17.5735 17.5417 19.1252 18.8888C20.6781 20.237 22.5349 21.1312 23.6442 21.5876C23.8762 21.683 24.1212 21.683 24.3532 21.5876C25.4625 21.1312 27.3193 20.237 28.8722 18.8888C30.4239 17.5417 31.4987 15.9022 31.4987 13.9167C31.4987 11.8456 29.8198 10.1667 27.7487 10.1667C26.7404 10.1667 25.8281 10.5624 25.1527 11.2105L24.5757 11.7642ZM23.9987 10.008C23.0255 9.074 21.7041 8.5 20.2487 8.5C17.2572 8.5 14.832 10.9251 14.832 13.9167C14.832 19.2235 20.6406 22.1542 23.0102 23.1289C23.6483 23.3914 24.3491 23.3914 24.9872 23.1289C27.3567 22.1542 33.1654 19.2235 33.1654 13.9167C33.1654 10.9251 30.7402 8.5 27.7487 8.5C26.2933 8.5 24.9719 9.074 23.9987 10.008Z" fill="#777E91"/>
</g>
<defs>
<filter id="filter0_d" x="0" y="0" width="48" height="48" filterUnits="userSpaceOnUse" color-interpolation-filters="sRGB">
<feFlood flood-opacity="0" result="BackgroundImageFix"/>
<feColorMatrix in="SourceAlpha" type="matrix" values="0 0 0 0 0 0 0 0 0 0 0 0 0 0 0 0 0 0 127 0"/>
<feMorphology radius="8" operator="erode" in="SourceAlpha" result="effect1_dropShadow"/>
<feOffset dy="8"/>
<feGaussianBlur stdDeviation="8"/>
<feColorMatrix type="matrix" values="0 0 0 0 0.0583333 0 0 0 0 0.0583333 0 0 0 0 0.0583333 0 0 0 0.2 0"/>
<feBlend mode="multiply" in2="BackgroundImageFix" result="effect1_dropShadow"/>
<feBlend mode="normal" in="SourceGraphic" in2="effect1_dropShadow" result="shape"/>
</filter>
</defs>
</svg>
